<?xml version="1.0" encoding="utf-8"?><svg xmlns="http://www.w3.org/2000/svg" xmlns:xlink="http://www.w3.org/1999/xlink"><symbol fill="none" viewBox="0 0 154 124" id="email" xmlns="http://www.w3.org/2000/svg"><path d="M138.6 0H15.4C6.93 0 0 6.93 0 15.4v92.4c0 8.47 6.93 15.4 15.4 15.4h123.2c8.47 0 15.4-6.93 15.4-15.4V15.4C154 6.93 147.07 0 138.6 0zm0 107.8h-15.4V40.04L77 69.3 30.8 40.04v67.76H15.4V15.4h9.24L77 47.74l52.36-32.34h9.24v92.4z" fill="#fff"/><path d="M138.6 0H15.4C6.93 0 0 6.93 0 15.4v92.4c0 8.47 6.93 15.4 15.4 15.4h123.2c8.47 0 15.4-6.93 15.4-15.4V15.4C154 6.93 147.07 0 138.6 0zm0 107.8h-15.4V40.04L77 69.3 30.8 40.04v67.76H15.4V15.4h9.24L77 47.74l52.36-32.34h9.24v92.4z" fill="#fff"/></symbol><symbol fill="none" viewBox="0 0 154 154" id="face-in-computer" xmlns="http://www.w3.org/2000/svg"><path d="M24.748 91.211a2.75 2.75 0 00-2.2 3.218l1.98 10.806a2.75 2.75 0 003.19 2.228l2.75-.495c0-.523-2.75-15.647-2.942-16.252l-2.778.495zM61.43 131.138L37.068 4.428a13.75 13.75 0 00-3.85 12.263C36.93 36.71 48.673 100.56 52.468 120.58a13.747 13.747 0 008.964 10.559zM34.125 81.12a2.75 2.75 0 00-2.227 3.217c6.572 36.105-2.338-13.75 4.95 27.03a2.75 2.75 0 003.19 2.228l5.251-.853-5.967-32.557-5.197.934z" fill="#fff"/><path d="M60.496 148.489H10.999a5.5 5.5 0 01-5.5-5.499v-33.85a5.5 5.5 0 014.895-5.5l8.25-.907-.99-5.5-15.207 1.76A2.75 2.75 0 000 101.743v49.496a2.75 2.75 0 002.75 2.75h57.416a3.053 3.053 0 003.08-2.255 2.75 2.75 0 00-2.75-3.245zM142.138 119.754a54.997 54.997 0 01-34.538 12.237H94.373c-2.75 2.007-13.199 10.394-14.656 21.998h74.272a58.237 58.237 0 00-11.274-33.492l-.577-.743z" fill="#fff"/><path d="M140.46 11.962C121.927-2.502 108.397-1.512 85.821 2.997c-14.299 2.75-23.703 9.487-27.883 24.198l14.684 79.745c3.988-1.238 17.352-5.885 17.352-5.885 2.75-.852 11.769-4.18 11.769-10.394a2.75 2.75 0 115.5 0c0 9.679-11 14.161-15.62 15.646l-4.62 1.595a43.67 43.67 0 018.718 18.589H107.6a49.496 49.496 0 0032.09-11.879 70.465 70.465 0 01-3.767-16.691 41.248 41.248 0 013.217-21.697c4.867-10.999 14.629-15.92 14.849-30.935a60.884 60.884 0 00-2.117-17.104 30.99 30.99 0 00-11.412-16.223zm4.235 21.036a2.75 2.75 0 01-3.41-1.898 20.073 20.073 0 00-7.562-10.532C125.034 13.886 117.637 11 108.975 11a2.75 2.75 0 110-5.5c9.844 0 18.534 3.355 28.13 10.835a25.761 25.761 0 019.487 13.364 2.75 2.75 0 01-1.897 3.3zM47.352 0c-1.81.183-3.591.58-5.307 1.182l25.133 130.809a18.286 18.286 0 004.317-.743c0-.522-8.25-44.712-24.143-131.248z" fill="#fff"/></symbol><symbol fill="none" viewBox="0 0 154 150" id="github" xmlns="http://www.w3.org/2000/svg"><path d="M143.671 38.29c-6.886-11.78-16.225-21.105-28.022-27.98C103.851 3.437 90.971 0 76.999 0 63.03 0 50.145 3.437 38.35 10.31c-11.797 6.875-21.136 16.2-28.022 27.98C3.442 50.07 0 62.932 0 76.878c0 16.752 4.895 31.816 14.688 45.196 9.792 13.381 22.441 22.64 37.947 27.779 1.805.334 3.142.099 4.01-.7.87-.8 1.303-1.802 1.303-3.002 0-.2-.017-2.002-.05-5.406a892.82 892.82 0 01-.05-8.907l-2.307.398c-1.47.269-3.325.383-5.564.35-2.238-.031-4.562-.265-6.968-.7-2.407-.432-4.645-1.433-6.718-3.001-2.07-1.569-3.541-3.621-4.41-6.156l-1.003-2.303c-.668-1.534-1.72-3.238-3.157-5.105-1.438-1.869-2.891-3.136-4.361-3.803l-.702-.502a7.4 7.4 0 01-1.304-1.202 5.495 5.495 0 01-.901-1.402c-.201-.468-.035-.852.5-1.153.536-.301 1.504-.447 2.908-.447l2.005.299c1.337.267 2.99 1.066 4.963 2.402 1.971 1.334 3.592 3.069 4.862 5.204 1.538 2.737 3.391 4.822 5.564 6.257 2.172 1.435 4.361 2.151 6.567 2.151 2.205 0 4.11-.166 5.714-.498a19.967 19.967 0 004.512-1.503c.601-4.473 2.24-7.909 4.912-10.311-3.81-.4-7.234-1.002-10.276-1.803-3.04-.801-6.183-2.102-9.424-3.905-3.243-1.802-5.933-4.038-8.071-6.706-2.139-2.67-3.894-6.175-5.263-10.511-1.37-4.339-2.055-9.344-2.055-15.016 0-8.076 2.64-14.95 7.921-20.622-2.474-6.072-2.24-12.879.701-20.42 1.939-.601 4.813-.15 8.623 1.35 3.81 1.503 6.6 2.789 8.371 3.856 1.772 1.066 3.192 1.97 4.262 2.702 6.217-1.734 12.633-2.602 19.25-2.602 6.616 0 13.034.868 19.251 2.602l3.81-2.401c2.605-1.603 5.682-3.07 9.222-4.406 3.543-1.334 6.252-1.701 8.124-1.1 3.007 7.541 3.274 14.348.8 20.42 5.28 5.673 7.922 12.547 7.922 20.622 0 5.672-.688 10.693-2.055 15.065-1.37 4.372-3.14 7.873-5.312 10.51-2.174 2.638-4.881 4.857-8.122 6.658-3.242 1.802-6.385 3.103-9.425 3.904-3.042.802-6.467 1.404-10.276 1.804 3.474 3.002 5.212 7.741 5.212 14.214v21.12c0 1.2.417 2.201 1.254 3.002.835.799 2.155 1.034 3.96.699 15.508-5.137 28.157-14.397 37.949-27.777C149.103 108.692 154 93.627 154 76.875c-.004-13.944-3.448-26.806-10.329-38.585z" fill="#fff"/></symbol><symbol fill="none" viewBox="0 0 154 155" id="linkedin" xmlns="http://www.w3.org/2000/svg"><path d="M142.628.768H11.378C5.095.768 0 5.706 0 11.8V143.73c0 6.096 5.096 11.039 11.379 11.039h131.249c6.284 0 11.372-4.946 11.372-11.039V11.801C154 5.708 148.912.768 142.628.768zm-95.94 128.908H23.42v-69.53h23.268v69.53zM35.057 50.648H34.9c-7.803 0-12.86-5.336-12.86-12.017 0-6.815 5.206-12.007 13.163-12.007 7.959 0 12.854 5.19 13.008 12.007 0 6.682-5.047 12.017-13.154 12.017zm95.507 79.028h-23.261v-37.2c0-9.348-3.37-15.726-11.782-15.726-6.435 0-10.255 4.303-11.933 8.457-.621 1.484-.775 3.56-.775 5.632v38.836H59.556s.305-63.008 0-69.53h23.26v9.858c3.088-4.736 8.606-11.493 20.958-11.493 15.31 0 26.79 9.932 26.79 31.298v39.868zM82.666 70.224c.04-.065.095-.144.15-.22v.22h-.15z" fill="#fff"/></symbol><symbol viewBox="0 0 0 0" id="sprite--sprite" xmlns="http://www.w3.org/2000/svg"/><symbol fill="none" viewBox="0 0 154 127" id="telephone" xmlns="http://www.w3.org/2000/svg"><path d="M77.846 23.16c25.949.255 42.205-1.36 44.4 27.402h31.643C153.889 6.006 115.031 0 77.022 0 39.012 0 .156 6.006.156 50.562h31.397c2.43-29.31 20.56-27.654 46.293-27.402zM15.848 64.885c7.707 0 14.12.462 15.546-7.12.192-1.03.303-2.198.303-3.55H0c0 11.278 7.096 10.67 15.848 10.67zM122.45 54.216h-.297c0 1.36.117 2.53.336 3.55 1.503 6.99 7.908 6.556 15.588 6.556 8.794 0 15.923.578 15.923-10.106h-31.55z" fill="#fff"/><path d="M106.991 46.536v-4.481c0-2.004-2.31-2.13-5.161-2.13h-4.658c-2.849 0-5.158.126-5.158 2.13v6.856H59.065v-6.856c0-2.004-2.31-2.13-5.158-2.13h-4.66c-2.85 0-5.159.126-5.159 2.13v8.393c-7.506 7.8-32.068 41.003-32.96 45.023l.011 26.823a4.499 4.499 0 004.493 4.493h119.815a4.499 4.499 0 004.493-4.493V95.336c-.884-3.903-25.44-37.091-32.949-44.891v-3.91zM57.441 99.08a4.366 4.366 0 01-4.367-4.367 4.366 4.366 0 014.368-4.367 4.366 4.366 0 014.367 4.367 4.366 4.366 0 01-4.367 4.367zm0-14.977a4.366 4.366 0 01-4.367-4.367 4.366 4.366 0 014.368-4.367 4.366 4.366 0 014.367 4.367 4.366 4.366 0 01-4.367 4.367zm0-14.973a4.366 4.366 0 110-8.735 4.368 4.368 0 010 8.735zm17.973 29.95a4.366 4.366 0 01-4.368-4.367 4.366 4.366 0 014.368-4.367 4.364 4.364 0 014.367 4.367 4.364 4.364 0 01-4.367 4.367zm0-14.977a4.366 4.366 0 01-4.368-4.367 4.366 4.366 0 014.368-4.367 4.364 4.364 0 014.367 4.367 4.364 4.364 0 01-4.367 4.367zm0-14.973a4.366 4.366 0 110-8.735 4.366 4.366 0 014.367 4.367 4.364 4.364 0 01-4.367 4.368zm17.972 29.95a4.364 4.364 0 01-4.367-4.367 4.364 4.364 0 014.367-4.367 4.364 4.364 0 014.367 4.367 4.364 4.364 0 01-4.367 4.367zm0-14.977a4.364 4.364 0 01-4.367-4.367 4.364 4.364 0 014.367-4.367 4.364 4.364 0 014.367 4.367 4.364 4.364 0 01-4.367 4.367zm0-14.973a4.364 4.364 0 01-4.367-4.368 4.366 4.366 0 014.367-4.367 4.366 4.366 0 014.367 4.367 4.364 4.364 0 01-4.367 4.368z" fill="#fff"/></symbol></svg>