<svg width="1366" height="331" viewBox="0 0 1366 331" fill="none" xmlns="http://www.w3.org/2000/svg">
<rect x="-0.5" y="26" width="1366" height="2" fill="#9B3281"/>
<rect x="-0.5" y="45" width="1366" height="1" fill="#983780"/>
<rect x="-0.5" y="65" width="1366" height="2" fill="#913279"/>
<rect x="-0.5" y="88" width="1366" height="2" fill="#912476"/>
<rect x="-0.5" y="114" width="1366" height="1" fill="#9B2C80"/>
<rect x="-0.5" y="143" width="1366" height="2" fill="#CB6DB4"/>
<rect x="-0.5" y="178" width="1366" height="1" fill="#FFD7EF"/>
<rect x="-0.5" y="217" width="1366" height="2" fill="#FFDEF1"/>
<rect x="-0.5" y="264" width="1366" height="2" fill="#FFDEF1"/>
<rect x="-0.5" y="320" width="1366" height="2" fill="#FFDEF1"/>
<path d="M-1.5 14.5L20.5 3.5L17.5 4L-2 13L-1.5 14.5Z" fill="white"/>
<path d="M-1.5 54.5L95.5 3.5H92.5L-1.5 52.5V54.5Z" fill="white"/>
<path d="M-1.5 105.5L170.5 4L168 3L-1.5 103V105.5Z" fill="white"/>
<path d="M-3 174.5L247 3H243.5L-5 172.5L-3 174.5Z" fill="white"/>
<path d="M-1.5 268.5L321 3H317.5L-4 266L-1.5 268.5Z" fill="white"/>
<path d="M74.5 332.5L395.5 3.5H393L67 334.5L74.5 332.5Z" fill="white"/>
<path d="M229 332.5L471 3.5H468.5L221.5 332.5H229Z" fill="white"/>
<path d="M382.5 331.5L546 3.5H544L376.5 332.5L382.5 331.5Z" fill="white"/>
<path d="M536.5 331.5L620 4H618L529.5 331.5H536.5Z" fill="white"/>
<path d="M689 331.5L695 4H693L683 331.5H689Z" fill="white"/>
<path d="M842 331L769.5 4H768.5L836 331.5L842 331Z" fill="white"/>
<path d="M996 331.5L844.5 4H843L990 331.5H996Z" fill="white"/>
<path d="M1149 331.5L919 3.5H917L1143 331.5H1149Z" fill="white"/>
<path d="M1303 332L994 3.5H992L1297 332H1303Z" fill="white"/>
<path d="M1442 318L1068.5 2.5L1066.5 3L1437 321L1442 318Z" fill="white"/>
<path d="M1389 175.5L1144.5 3H1142.5L1386.5 177.5L1389 175.5Z" fill="white"/>
<path d="M1377.5 99L1217.5 1.5L1216 2L1374 99H1377.5Z" fill="white"/>
<path d="M1369 42.5L1293.5 3L1290.5 2.5L1368 44L1369 42.5Z" fill="white"/>
<rect x="-0.5" width="1366" height="4" fill="white"/>
</svg>
