<svg width="315" height="315" viewBox="0 0 315 315" fill="none" xmlns="http://www.w3.org/2000/svg">
<path fill-rule="evenodd" clip-rule="evenodd" d="M314.906 163C314.968 161.174 315 159.341 315 157.5C315 152.952 314.807 148.45 314.43 144H0.570478C0.192734 148.45 0 152.952 0 157.5C0 159.341 0.0315825 161.174 0.0942352 163H314.906ZM0.658561 172C1.34292 179.498 2.55276 186.843 4.25093 194H310.749C312.447 186.843 313.657 179.498 314.341 172H0.658561ZM12.888 220C10.3666 214.174 8.18695 208.166 6.37437 202H308.626C306.813 208.166 304.633 214.174 302.112 220H12.888ZM16.6212 228C21.4356 237.602 27.2027 246.643 33.7985 255H281.201C287.797 246.643 293.564 237.602 298.379 228H16.6212ZM62.3228 283C54.8138 277.296 47.8323 270.934 41.4643 264H273.536C267.168 270.934 260.186 277.296 252.677 283H62.3228ZM73.8903 291C98.1198 306.207 126.783 315 157.5 315C188.217 315 216.88 306.207 241.11 291H73.8903ZM6.67199 112C4.42793 119.449 2.72061 127.131 1.595 135H313.405C312.279 127.131 310.572 119.449 308.328 112H6.67199ZM9.68429 103C12.6318 95.0085 16.2088 87.3218 20.3552 80H294.645C298.791 87.3218 302.368 95.0085 305.316 103H9.68429ZM26.5221 70H288.478C281.891 60.1599 274.225 51.1034 265.649 43H49.3514C40.7751 51.1034 33.1089 60.1599 26.5221 70ZM253.98 33C227.326 12.3148 193.851 0 157.5 0C121.149 0 87.6744 12.3148 61.0203 33H253.98Z" fill="white"/>
</svg>
