<svg width="154" height="124" viewBox="0 0 154 124" fill="none" xmlns="http://www.w3.org/2000/svg">
<path d="M138.6 0H15.4C6.93 0 0 6.93 0 15.4V107.8C0 116.27 6.93 123.2 15.4 123.2H138.6C147.07 123.2 154 116.27 154 107.8V15.4C154 6.93 147.07 0 138.6 0ZM138.6 107.8H123.2V40.04L77 69.3L30.8 40.04V107.8H15.4V15.4H24.64L77 47.74L129.36 15.4H138.6V107.8Z" fill="white"/>
<path d="M138.6 0H15.4C6.93 0 0 6.93 0 15.4V107.8C0 116.27 6.93 123.2 15.4 123.2H138.6C147.07 123.2 154 116.27 154 107.8V15.4C154 6.93 147.07 0 138.6 0ZM138.6 107.8H123.2V40.04L77 69.3L30.8 40.04V107.8H15.4V15.4H24.64L77 47.74L129.36 15.4H138.6V107.8Z" fill="white"/>
</svg>
