<svg width="154" height="154" viewBox="0 0 154 154" fill="none" xmlns="http://www.w3.org/2000/svg">
<path d="M24.7483 91.2113C24.0292 91.3447 23.3928 91.7591 22.98 92.3629C22.5671 92.9666 22.4119 93.71 22.5485 94.4285L24.5283 105.235C24.6557 105.954 25.0634 106.592 25.6616 107.01C26.2599 107.428 26.9997 107.591 27.7181 107.463L30.4679 106.968C30.4679 106.445 27.7181 91.3213 27.5256 90.7163L24.7483 91.2113Z" fill="white"/>
<path d="M61.4307 131.138L37.0674 4.42725C33.8346 7.62683 32.3933 12.2182 33.2177 16.6914C36.93 36.71 48.6716 100.56 52.4664 120.579C53.3338 125.457 56.7584 129.491 61.4307 131.138V131.138Z" fill="white"/>
<path d="M34.1251 81.1195C33.4009 81.2465 32.7577 81.6582 32.3392 82.2628C31.9207 82.8673 31.7617 83.6142 31.8978 84.3368C38.4698 120.442 29.5604 70.5878 36.8474 111.367C36.9748 112.086 37.3825 112.724 37.9807 113.142C38.579 113.56 39.3188 113.723 40.0372 113.595L45.2893 112.742L39.3223 80.1846L34.1251 81.1195Z" fill="white"/>
<path d="M60.4958 148.489H10.9993C7.96192 148.489 5.49966 146.027 5.49966 142.99V109.14C5.48258 106.324 7.59537 103.95 10.3943 103.64L18.6437 102.733L17.6538 97.233L2.44738 98.9929C1.04791 99.1478 -0.0084901 100.335 5.14283e-05 101.743V151.239C5.14283e-05 152.758 1.23118 153.989 2.74986 153.989H60.1658C61.5937 154.051 62.8735 153.114 63.2456 151.734C63.394 150.924 63.1712 150.09 62.6386 149.461C62.1059 148.833 61.3195 148.476 60.4958 148.489Z" fill="white"/>
<path d="M142.138 119.754C132.362 127.661 120.173 131.98 107.6 131.991H94.3734C91.6236 133.998 81.1743 142.385 79.7169 153.989H153.989C153.791 141.927 149.851 130.224 142.715 120.497L142.138 119.754Z" fill="white"/>
<path d="M140.46 11.9616C121.927 -2.50242 108.397 -1.51249 85.8215 2.99719C71.5225 5.74699 62.1182 12.484 57.9385 27.1955L72.6225 106.94C76.6097 105.702 89.9737 101.055 89.9737 101.055C92.7235 100.203 101.743 96.8755 101.743 90.661C101.743 89.1423 102.974 87.9112 104.493 87.9112C106.011 87.9112 107.243 89.1423 107.243 90.661C107.243 100.34 96.2433 104.822 91.6236 106.307L87.0039 107.902C91.3456 113.318 94.3339 119.69 95.7208 126.491H107.6C119.369 126.472 130.746 122.261 139.69 114.612C137.761 109.222 136.496 103.617 135.923 97.9205C135.018 90.5306 136.129 83.0336 139.14 76.2245C144.007 65.2253 153.769 60.3031 153.989 45.2892C154.098 39.5164 153.385 33.7574 151.872 28.1854C149.948 21.6733 145.939 15.9732 140.46 11.9616V11.9616ZM144.695 32.9976C143.991 33.2007 143.235 33.1147 142.595 32.7585C141.955 32.4023 141.484 31.8054 141.285 31.1002C139.999 26.8498 137.339 23.1459 133.723 20.5684C125.034 13.8864 117.637 10.9991 108.975 10.9991C107.456 10.9991 106.225 9.76799 106.225 8.24931C106.225 6.73064 107.456 5.49951 108.975 5.49951C118.819 5.49951 127.509 8.85427 137.105 16.3337C141.638 19.6372 144.969 24.3293 146.592 29.6978C146.946 31.1284 146.109 32.5838 144.695 32.9976V32.9976Z" fill="white"/>
<path d="M47.3517 0C45.5421 0.182549 43.7606 0.57947 42.0446 1.18242L67.1778 131.991C68.6414 131.917 70.0909 131.668 71.495 131.248C71.495 130.726 63.2456 86.5364 47.3517 0Z" fill="white"/>
</svg>
