<svg width="154" height="150" viewBox="0 0 154 150" fill="none" xmlns="http://www.w3.org/2000/svg">
<path d="M143.671 38.2901C136.785 26.5108 127.446 17.1851 115.649 10.3109C103.851 3.43639 90.9706 0 76.9993 0C63.0298 0 50.1454 3.43744 38.3495 10.3109C26.5519 17.1847 17.2125 26.5108 10.3269 38.2901C3.44243 50.069 0 62.9317 0 76.8778C0 93.6302 4.89518 108.694 14.688 122.074C24.4797 135.455 37.1292 144.714 52.6354 149.853C54.4404 150.187 55.7766 149.952 56.6453 149.153C57.5145 148.353 57.9485 147.351 57.9485 146.151C57.9485 145.951 57.9313 144.149 57.8979 140.745C57.8635 137.341 57.8474 134.371 57.8474 131.838L55.5413 132.236C54.071 132.505 52.2162 132.619 49.9768 132.586C47.7385 132.555 45.4149 132.321 43.0091 131.886C40.6022 131.454 38.3636 130.453 36.2914 128.885C34.2202 127.316 32.7499 125.264 31.8808 122.729L30.8782 120.426C30.21 118.892 29.1579 117.188 27.7206 115.321C26.2833 113.452 24.8299 112.185 23.3595 111.518L22.6576 111.016C22.1898 110.682 21.7558 110.28 21.3544 109.814C20.9534 109.347 20.6531 108.88 20.4526 108.412C20.2518 107.944 20.4182 107.56 20.9537 107.259C21.4893 106.958 22.4571 106.812 23.8614 106.812L25.8658 107.111C27.2026 107.378 28.8563 108.177 30.8287 109.513C32.8001 110.847 34.4207 112.582 35.6909 114.717C37.229 117.454 39.0821 119.539 41.2554 120.974C43.427 122.409 45.6164 123.125 47.8217 123.125C50.027 123.125 51.9317 122.959 53.5365 122.627C55.1396 122.293 56.6436 121.791 58.0479 121.124C58.6494 116.651 60.2872 113.215 62.9599 110.813C59.1505 110.413 55.7256 109.811 52.6835 109.01C49.6432 108.209 46.5014 106.908 43.2602 105.105C40.0172 103.303 37.327 101.067 35.1887 98.3986C33.0502 95.729 31.2951 92.2243 29.9259 87.8875C28.556 83.549 27.8709 78.5443 27.8709 72.872C27.8709 64.7956 30.5116 57.9228 35.792 52.2498C33.3185 46.1779 33.552 39.371 36.4933 31.83C38.4317 31.2287 41.3063 31.6799 45.1157 33.1809C48.9258 34.6826 51.7154 35.969 53.4874 37.0356C55.2593 38.1018 56.6791 39.0053 57.7487 39.7381C63.966 38.0036 70.382 37.1362 76.9986 37.1362C83.6152 37.1362 90.0326 38.0036 96.2503 39.7381L100.06 37.3367C102.665 35.7344 105.742 34.2661 109.282 32.9313C112.825 31.5972 115.534 31.2297 117.406 31.831C120.413 39.3724 120.68 46.1789 118.206 52.2509C123.486 57.9239 126.128 64.7984 126.128 72.8731C126.128 78.5453 125.44 83.5658 124.073 87.9376C122.703 92.3102 120.933 95.8114 118.761 98.4488C116.587 101.086 113.88 103.305 110.639 105.106C107.397 106.908 104.254 108.209 101.214 109.01C98.1718 109.812 94.747 110.414 90.9376 110.814C94.4119 113.816 96.1495 118.555 96.1495 125.028V146.148C96.1495 147.348 96.5674 148.349 97.4038 149.15C98.2392 149.949 99.5586 150.184 101.364 149.849C116.872 144.712 129.521 135.452 139.313 122.072C149.103 108.692 154 93.6274 154 76.875C153.996 62.9307 150.552 50.069 143.671 38.2901Z" fill="white"/>
</svg>
