<svg width="154" height="155" viewBox="0 0 154 155" fill="none" xmlns="http://www.w3.org/2000/svg">
<path d="M142.628 0.767578H11.3787C5.09391 0.767578 0 5.70604 0 11.8013V143.729C0 149.825 5.0957 154.768 11.3787 154.768H142.628C148.912 154.768 154 149.822 154 143.729V11.8013C154 5.70783 148.912 0.767578 142.628 0.767578ZM46.6884 129.676H23.4201V60.1469H46.6884V129.676ZM35.0566 50.6481H34.9001C27.0972 50.6481 22.0391 45.3119 22.0391 38.6312C22.0391 31.8158 27.2458 26.6242 35.2034 26.6242C43.1617 26.6242 48.0569 31.8144 48.2115 38.6312C48.2115 45.3133 43.1635 50.6481 35.0566 50.6481ZM130.564 129.676H107.303V92.4756C107.303 83.1282 103.933 76.75 95.5208 76.75C89.0856 76.75 85.2657 81.053 83.5882 85.2073C82.9667 86.691 82.8127 88.7662 82.8127 90.8386V129.675H59.5562C59.5562 129.675 59.8605 66.6669 59.5562 60.1459H82.8163V70.0031C85.9041 65.2666 91.4219 58.51 103.774 58.51C119.084 58.51 130.564 68.4417 130.564 89.8078V129.676ZM82.6659 70.224C82.7056 70.1588 82.7611 70.0804 82.8163 70.0042V70.224H82.6659Z" fill="white"/>
</svg>
