<svg width="154" height="127" viewBox="0 0 154 127" fill="none" xmlns="http://www.w3.org/2000/svg">
<path d="M77.8463 23.1601C103.795 23.4147 120.051 21.8002 122.246 50.5615H153.889C153.889 6.00568 115.031 0 77.0225 0C39.0115 0 0.155838 6.00568 0.155838 50.5615H31.5531C33.9823 21.252 52.1132 22.9084 77.8463 23.1601Z" fill="white"/>
<path d="M15.8484 64.8853C23.5554 64.8853 29.9685 65.3465 31.3943 57.7653C31.586 56.7349 31.6968 55.5667 31.6968 54.2158H31.3314H0C0 65.4933 7.09599 64.8853 15.8484 64.8853Z" fill="white"/>
<path d="M122.45 54.2158H122.153C122.153 55.5757 122.27 56.7469 122.489 57.7653C123.992 64.7565 130.397 64.3222 138.077 64.3222C146.871 64.3222 154 64.9003 154 54.2158H122.45Z" fill="white"/>
<path d="M106.991 46.5357V42.0547C106.991 40.0508 104.681 39.925 101.83 39.925H97.1719C94.3233 39.925 92.0139 40.0508 92.0139 42.0547V45.9157V48.911H59.065V45.9157V42.0547C59.065 40.0508 56.7556 39.925 53.907 39.925H49.2463C46.3977 39.925 44.0883 40.0508 44.0883 42.0547V46.5357V50.4477C36.5819 58.2476 12.02 91.451 11.1274 95.4708L11.1394 122.294C11.1394 124.771 13.1553 126.787 15.6324 126.787H135.447C137.924 126.787 139.94 124.771 139.94 122.294V95.336C139.056 91.433 114.5 58.2446 106.991 50.4447V46.5357ZM57.4416 99.0802C55.0303 99.0802 53.0743 97.1272 53.0743 94.713C53.0743 92.2987 55.0303 90.3457 57.4416 90.3457C59.8528 90.3457 61.8088 92.2987 61.8088 94.713C61.8088 97.1272 59.8528 99.0802 57.4416 99.0802ZM57.4416 84.1034C55.0303 84.1034 53.0743 82.1505 53.0743 79.7362C53.0743 77.322 55.0303 75.369 57.4416 75.369C59.8528 75.369 61.8088 77.322 61.8088 79.7362C61.8088 82.1505 59.8528 84.1034 57.4416 84.1034ZM57.4416 69.1297C55.0303 69.1297 53.0743 67.1767 53.0743 64.7624C53.0743 62.3512 55.0303 60.3952 57.4416 60.3952C59.8528 60.3952 61.8088 62.3512 61.8088 64.7624C61.8088 67.1767 59.8528 69.1297 57.4416 69.1297ZM75.4137 99.0802C73.0024 99.0802 71.0464 97.1272 71.0464 94.713C71.0464 92.2987 73.0024 90.3457 75.4137 90.3457C77.8279 90.3457 79.7809 92.2987 79.7809 94.713C79.7809 97.1272 77.8279 99.0802 75.4137 99.0802ZM75.4137 84.1034C73.0024 84.1034 71.0464 82.1505 71.0464 79.7362C71.0464 77.322 73.0024 75.369 75.4137 75.369C77.8279 75.369 79.7809 77.322 79.7809 79.7362C79.7809 82.1505 77.8279 84.1034 75.4137 84.1034ZM75.4137 69.1297C73.0024 69.1297 71.0464 67.1767 71.0464 64.7624C71.0464 62.3512 73.0024 60.3952 75.4137 60.3952C77.8279 60.3952 79.7809 62.3512 79.7809 64.7624C79.7809 67.1767 77.8279 69.1297 75.4137 69.1297ZM93.3858 99.0802C90.9715 99.0802 89.0185 97.1272 89.0185 94.713C89.0185 92.2987 90.9715 90.3457 93.3858 90.3457C95.8 90.3457 97.753 92.2987 97.753 94.713C97.753 97.1272 95.8 99.0802 93.3858 99.0802ZM93.3858 84.1034C90.9715 84.1034 89.0185 82.1505 89.0185 79.7362C89.0185 77.322 90.9715 75.369 93.3858 75.369C95.8 75.369 97.753 77.322 97.753 79.7362C97.753 82.1505 95.8 84.1034 93.3858 84.1034ZM93.3858 69.1297C90.9715 69.1297 89.0185 67.1767 89.0185 64.7624C89.0185 62.3512 90.9715 60.3952 93.3858 60.3952C95.8 60.3952 97.753 62.3512 97.753 64.7624C97.753 67.1767 95.8 69.1297 93.3858 69.1297Z" fill="white"/>
</svg>
